# Blender v2.79 (sub 0) OBJ File: ''
# www.blender.org
o Cube.000_Cube.003
v -4.500000 0.000000 -4.500000
v -4.500000 0.250000 -4.500000
v -4.000000 0.000000 -4.500000
v -4.500000 0.000000 4.500000
v -4.500000 0.250000 4.500000
v -4.000000 0.000000 4.500000
v 4.500000 0.000000 4.000001
v 4.500000 0.000000 4.500000
v 4.500000 0.250000 4.500000
v -4.500000 0.000000 4.000000
v -4.500000 0.000000 4.500000
v -4.500000 0.250000 4.500000
v 4.500000 0.000000 4.500000
v 4.500000 0.250000 4.500000
v 4.000000 0.000000 4.500000
v 4.500000 0.000000 -4.500000
v 4.500000 0.250000 -4.500000
v 4.000000 0.000000 -4.500000
v -4.500000 0.000000 -4.000000
v -4.500000 0.000000 -4.500000
v -4.500000 0.250000 -4.500000
v 4.500000 0.000000 -4.000000
v 4.500000 0.000000 -4.500000
v 4.500000 0.250000 -4.500000
v -4.500000 0.250000 -4.500000
v -4.000000 0.000000 -4.500000
v -4.370590 0.241481 -4.500000
v -4.250000 0.216506 -4.500000
v -4.146446 0.176777 -4.500000
v -4.066987 0.125000 -4.500000
v -4.017037 0.064705 -4.500000
v -4.000000 0.000000 4.500000
v -4.500000 0.250000 4.500000
v -4.017037 0.064705 4.500000
v -4.066988 0.125000 4.500000
v -4.146447 0.176777 4.500000
v -4.250000 0.216506 4.500000
v -4.370591 0.241481 4.500000
v 4.500000 0.000000 4.000001
v 4.500000 0.250000 4.500000
v 4.500000 0.064705 4.017038
v 4.500000 0.125000 4.066988
v 4.500000 0.176777 4.146448
v 4.500000 0.216506 4.250001
v 4.500000 0.241481 4.370592
v -4.500000 0.250000 4.500000
v -4.500000 0.000000 4.000000
v -4.500000 0.241481 4.370590
v -4.500000 0.216506 4.250000
v -4.500000 0.176777 4.146446
v -4.500000 0.125000 4.066987
v -4.500000 0.064705 4.017037
v 4.500000 0.250000 4.500000
v 4.000000 0.000000 4.500000
v 4.370590 0.241481 4.500000
v 4.250000 0.216506 4.500000
v 4.146446 0.176777 4.500000
v 4.066987 0.125000 4.500000
v 4.017037 0.064705 4.500000
v 4.000000 0.000000 -4.500000
v 4.500000 0.250000 -4.500000
v 4.017037 0.064705 -4.500000
v 4.066988 0.125000 -4.500000
v 4.146447 0.176777 -4.500000
v 4.250000 0.216506 -4.500000
v 4.370591 0.241481 -4.500000
v -4.500000 0.000000 -4.000000
v -4.500000 0.250000 -4.500000
v -4.500000 0.064705 -4.017037
v -4.500000 0.125000 -4.066988
v -4.500000 0.176777 -4.146447
v -4.500000 0.216506 -4.250000
v -4.500000 0.241481 -4.370591
v 4.500000 0.250000 -4.500000
v 4.500000 0.000000 -4.000000
v 4.500000 0.241481 -4.370590
v 4.500000 0.216506 -4.250000
v 4.500000 0.176777 -4.146446
v 4.500000 0.125000 -4.066987
v 4.500000 0.064705 -4.017037
vt 0.000000 0.000000
vt 0.000000 0.000000
vt 0.000000 0.000000
vt 0.986701 0.182939
vt 0.954596 0.222222
vt 0.954596 0.166667
vt 0.000000 0.000000
vt 0.000000 0.000000
vt 0.000000 0.000000
vt 0.724451 1.000000
vt 0.769855 0.000000
vt 0.769855 1.000000
vt 0.272986 1.000000
vt 0.181991 0.000000
vt 0.272986 0.000000
vt 0.977298 0.118554
vt 0.988249 0.113004
vt 1.000000 0.111111
vt 0.000000 0.000000
vt 0.000000 0.000000
vt 0.000000 0.000000
vt 0.769856 1.000000
vt 0.815260 0.000000
vt 0.815260 1.000000
vt 0.000000 0.000000
vt 0.000000 0.000000
vt 0.000000 0.000000
vt 0.967894 0.372617
vt 1.000000 0.333333
vt 1.000000 0.388889
vt 0.363981 1.000000
vt 0.272986 0.000000
vt 0.363981 0.000000
vt 0.977298 0.285221
vt 0.988249 0.279671
vt 1.000000 0.277778
vt 0.000000 0.000000
vt 0.000000 0.000000
vt 0.000000 0.000000
vt 0.986701 0.071827
vt 0.954596 0.111111
vt 0.954596 0.055556
vt 0.000000 0.000000
vt 0.000000 0.000000
vt 0.000000 0.000000
vt 0.724451 0.000000
vt 0.679047 1.000000
vt 0.679047 0.000000
vt 0.090995 0.000000
vt 0.181991 1.000000
vt 0.090996 1.000000
vt 0.977298 0.007443
vt 0.988249 0.001893
vt 1.000000 0.000000
vt 0.000000 0.000000
vt 0.000000 0.000000
vt 0.000000 0.000000
vt 0.815260 1.000000
vt 0.860664 0.000000
vt 0.860664 1.000000
vt 0.986701 0.405161
vt 0.954596 0.444444
vt 0.954596 0.388889
vt 0.000000 0.000000
vt 0.090995 1.000000
vt 0.000000 1.000000
vt 1.000000 0.222222
vt 1.000000 0.222222
vt 1.000000 0.277778
vt 0.522508 0.999652
vt 0.498957 0.000566
vt 0.522508 0.000607
vt 0.498957 0.999610
vt 0.477011 0.000444
vt 0.477011 0.999489
vt 0.458165 0.000251
vt 0.458165 0.999296
vt 0.443704 0.000000
vt 0.931113 0.000000
vt 0.942646 1.000000
vt 0.931113 1.000000
vt 0.942646 0.000000
vt 0.954596 1.000000
vt 0.363981 0.000000
vt 0.387578 1.000000
vt 0.363981 1.000000
vt 0.387578 0.000000
vt 0.409701 1.000000
vt 0.409702 0.000000
vt 0.428845 1.000000
vt 0.428845 0.000000
vt 0.443704 1.000000
vt 0.907630 0.000000
vt 0.919163 1.000000
vt 0.907630 1.000000
vt 0.919163 0.000000
vt 0.931113 1.000000
vt 0.601312 0.999045
vt 0.577761 0.000041
vt 0.601312 0.000000
vt 0.577761 0.999086
vt 0.555815 0.000163
vt 0.555815 0.999207
vt 0.536969 0.000356
vt 0.536969 0.999400
vt 0.522508 0.000607
vt 0.860664 0.000000
vt 0.872197 1.000000
vt 0.860664 1.000000
vt 0.872197 0.000000
vt 0.884147 1.000000
vt 0.679047 1.000000
vt 0.655586 0.000000
vt 0.679047 0.000000
vt 0.655586 1.000000
vt 0.633859 0.000000
vt 0.633860 1.000000
vt 0.615348 0.000000
vt 0.615348 1.000000
vt 0.601312 0.000000
vt 0.884147 0.000000
vt 0.895680 1.000000
vt 0.884147 1.000000
vt 0.895680 0.000000
vt 0.907630 1.000000
vt 0.000000 0.000000
vt 0.000000 0.000000
vt 0.000000 0.000000
vt 0.000000 0.000000
vt 0.954596 0.166667
vt 0.966347 0.168560
vt 0.977298 0.174110
vt 0.993917 0.194445
vt 0.998453 0.207843
vt 1.000000 0.222222
vt 1.000000 0.222222
vt 0.000000 0.000000
vt 0.724451 0.000000
vt 0.181991 1.000000
vt 1.000000 0.166667
vt 0.954596 0.166667
vt 0.954596 0.166667
vt 0.956143 0.152288
vt 0.960679 0.138889
vt 0.967894 0.127383
vt 1.000000 0.111111
vt 0.000000 0.000000
vt 0.769855 0.000000
vt 0.000000 0.000000
vt 1.000000 0.388889
vt 0.988248 0.386996
vt 0.977298 0.381446
vt 0.960679 0.361111
vt 0.956143 0.347712
vt 0.954596 0.333333
vt 0.954596 0.333333
vt 0.272986 1.000000
vt 1.000000 0.333333
vt 0.954596 0.333333
vt 0.954596 0.333333
vt 0.956143 0.318955
vt 0.960679 0.305556
vt 0.967894 0.294050
vt 1.000000 0.277778
vt 0.000000 0.000000
vt 0.954596 0.055556
vt 0.966347 0.057449
vt 0.977298 0.062999
vt 0.993917 0.083333
vt 0.998453 0.096732
vt 1.000000 0.111111
vt 1.000000 0.111111
vt 0.000000 0.000000
vt 0.724451 1.000000
vt 0.181990 0.000000
vt 1.000000 0.055556
vt 0.954596 0.055556
vt 0.954596 0.055556
vt 0.956143 0.041177
vt 0.960679 0.027778
vt 0.967894 0.016272
vt 1.000000 0.000000
vt 0.000000 0.000000
vt 0.815260 0.000000
vt 0.954596 0.388889
vt 0.966347 0.390782
vt 0.977298 0.396332
vt 0.993917 0.416667
vt 0.998453 0.430066
vt 1.000000 0.444444
vt 1.000000 0.444444
vt 0.090995 0.000000
vt 0.954596 0.277778
vt 0.954596 0.277778
vt 0.956143 0.263399
vt 0.960679 0.250000
vt 0.967894 0.238494
vt 0.977298 0.229665
vt 0.988249 0.224115
vt 0.443704 0.999045
vt 0.954596 0.000000
vt 0.443704 0.000000
vt 0.931113 0.000000
vt 0.522508 0.999652
vt 0.884147 0.000000
vt 0.601313 1.000000
vt 0.907630 0.000000
vt 0.000000 0.000000
vn 0.0000 0.0000 1.0000
vn -1.0000 0.0000 0.0000
vn 0.0000 -1.0000 0.0000
vn 0.0000 0.0000 -1.0000
vn 1.0000 0.0000 0.0000
vn 0.0000 1.0000 0.0000
vn 0.0657 0.9978 0.0000
vn 0.2028 0.9792 0.0000
vn 0.3582 0.9336 -0.0000
vn 0.5459 0.8378 0.0000
vn 0.7701 0.6379 0.0000
vn 0.9670 0.2546 0.0000
vn 0.0000 0.9978 -0.0657
vn 0.0000 0.9792 -0.2028
vn 0.0000 0.9336 -0.3582
vn 0.0000 0.8378 -0.5459
vn 0.0000 0.6380 -0.7701
vn 0.0000 0.2546 -0.9670
vn -0.0657 0.9978 0.0000
vn -0.2028 0.9792 -0.0000
vn -0.3582 0.9336 0.0000
vn -0.5459 0.8378 -0.0000
vn -0.7701 0.6379 -0.0000
vn -0.9670 0.2546 -0.0000
vn 0.0000 0.9978 0.0657
vn 0.0000 0.9792 0.2028
vn 0.0000 0.9336 0.3582
vn -0.0000 0.8378 0.5459
vn 0.0000 0.6380 0.7701
vn -0.0000 0.2546 0.9670
vn 0.7701 0.6380 0.0000
vn -0.7701 0.6380 -0.0000
s off
f 3/1/1 32/2/1 6/3/1
f 36/4/1 4/5/1 32/6/1
f 10/7/1 39/8/1 7/9/1
f 5/10/2 1/11/2 4/12/2
f 6/13/3 1/14/3 3/15/3
f 30/16/4 31/17/4 3/18/4
f 12/19/1 40/20/1 46/21/1
f 9/22/1 11/23/1 8/24/1
f 61/25/1 14/26/1 17/27/1
f 43/28/5 8/29/5 39/30/5
f 11/31/3 7/32/3 8/33/3
f 51/34/2 52/35/2 10/36/2
f 15/37/1 60/38/1 18/39/1
f 64/40/4 16/41/4 60/42/4
f 22/43/1 67/44/1 19/45/1
f 17/46/5 13/47/5 16/48/5
f 18/49/3 13/50/3 15/51/3
f 58/52/1 59/53/1 15/54/1
f 24/55/6 68/56/6 74/57/6
f 21/58/4 23/59/4 20/60/4
f 71/61/2 20/62/2 67/63/2
f 23/64/3 19/65/3 20/66/3
f 75/67/1 22/68/1 23/69/1
f 33/70/7 27/71/7 25/72/7
f 38/73/8 28/74/8 27/71/8
f 37/75/9 29/76/9 28/74/9
f 36/77/10 30/78/10 29/76/10
f 35/79/11 31/80/11 30/81/11
f 34/82/12 26/83/12 31/80/12
f 40/84/13 48/85/13 46/86/13
f 45/87/14 49/88/14 48/85/14
f 44/89/15 50/90/15 49/88/15
f 43/91/16 51/92/16 50/90/16
f 42/93/17 52/94/17 51/95/17
f 41/96/18 47/97/18 52/94/18
f 61/98/19 55/99/19 53/100/19
f 66/101/20 56/102/20 55/99/20
f 65/103/21 57/104/21 56/102/21
f 64/105/22 58/106/22 57/104/22
f 63/107/23 59/108/23 58/109/23
f 62/110/24 54/111/24 59/108/24
f 68/112/25 76/113/25 74/114/25
f 73/115/26 77/116/26 76/113/26
f 72/117/27 78/118/27 77/116/27
f 71/119/28 79/120/28 78/118/28
f 70/121/29 80/122/29 79/123/29
f 69/124/30 75/125/30 80/122/30
f 33/126/1 2/127/1 5/128/1
f 3/1/1 26/129/1 32/2/1
f 4/5/1 6/130/1 32/6/1
f 32/6/1 34/131/1 35/132/1
f 35/132/1 36/4/1 32/6/1
f 36/4/1 37/133/1 4/5/1
f 37/133/1 38/134/1 4/5/1
f 38/134/1 33/135/1 4/5/1
f 33/135/1 5/136/1 4/5/1
f 10/7/1 47/137/1 39/8/1
f 5/10/2 2/138/2 1/11/2
f 6/13/3 4/139/3 1/14/3
f 1/140/1 2/141/1 25/142/1
f 25/142/4 27/143/4 1/140/4
f 27/143/4 28/144/4 1/140/4
f 28/144/4 29/145/4 1/140/4
f 29/145/4 30/16/4 3/18/4
f 1/140/4 29/145/4 3/18/4
f 31/17/1 26/146/1 3/18/1
f 12/19/1 9/147/1 40/20/1
f 9/22/1 12/148/1 11/23/1
f 61/25/1 53/149/1 14/26/1
f 8/29/1 7/150/1 39/30/1
f 39/30/5 41/151/5 42/152/5
f 42/152/5 43/28/5 39/30/5
f 43/28/5 44/153/5 8/29/5
f 44/153/5 45/154/5 8/29/5
f 45/154/5 40/155/5 8/29/5
f 40/155/1 9/156/1 8/29/1
f 11/31/3 10/157/3 7/32/3
f 11/158/1 12/159/1 46/160/1
f 46/160/2 48/161/2 11/158/2
f 48/161/2 49/162/2 11/158/2
f 49/162/2 50/163/2 11/158/2
f 50/163/2 51/34/2 10/36/2
f 11/158/2 50/163/2 10/36/2
f 52/35/1 47/164/1 10/36/1
f 15/37/1 54/165/1 60/38/1
f 16/41/1 18/166/1 60/42/1
f 60/42/4 62/167/4 63/168/4
f 63/168/4 64/40/4 60/42/4
f 64/40/4 65/169/4 16/41/4
f 65/169/4 66/170/4 16/41/4
f 66/170/4 61/171/4 16/41/4
f 61/171/1 17/172/1 16/41/1
f 22/43/1 75/173/1 67/44/1
f 17/46/5 14/174/5 13/47/5
f 18/49/3 16/175/3 13/50/3
f 13/176/1 14/177/1 53/178/1
f 53/178/1 55/179/1 13/176/1
f 55/179/1 56/180/1 13/176/1
f 56/180/1 57/181/1 13/176/1
f 57/181/1 58/52/1 15/54/1
f 13/176/1 57/181/1 15/54/1
f 59/53/1 54/182/1 15/54/1
f 24/55/1 21/183/1 68/56/1
f 21/58/4 24/184/4 23/59/4
f 20/62/1 19/185/1 67/63/1
f 67/63/2 69/186/2 70/187/2
f 70/187/2 71/61/2 67/63/2
f 71/61/2 72/188/2 20/62/2
f 72/188/2 73/189/2 20/62/2
f 73/189/2 68/190/2 20/62/2
f 68/190/1 21/191/1 20/62/1
f 23/64/3 22/192/3 19/65/3
f 23/69/5 24/193/5 74/194/5
f 74/194/5 76/195/5 23/69/5
f 76/195/5 77/196/5 23/69/5
f 77/196/5 78/197/5 23/69/5
f 78/197/5 79/198/5 75/67/5
f 23/69/5 78/197/5 75/67/5
f 79/198/5 80/199/5 75/67/5
f 33/70/7 38/73/7 27/71/7
f 38/73/8 37/75/8 28/74/8
f 37/75/9 36/77/9 29/76/9
f 36/77/10 35/200/10 30/78/10
f 35/79/31 34/82/31 31/80/31
f 34/82/12 32/201/12 26/83/12
f 40/84/13 45/87/13 48/85/13
f 45/87/14 44/89/14 49/88/14
f 44/89/15 43/91/15 50/90/15
f 43/91/16 42/202/16 51/92/16
f 42/93/17 41/96/17 52/94/17
f 41/96/18 39/203/18 47/97/18
f 61/98/19 66/101/19 55/99/19
f 66/101/20 65/103/20 56/102/20
f 65/103/21 64/105/21 57/104/21
f 64/105/22 63/204/22 58/106/22
f 63/107/32 62/110/32 59/108/32
f 62/110/24 60/205/24 54/111/24
f 68/112/25 73/115/25 76/113/25
f 73/115/26 72/117/26 77/116/26
f 72/117/27 71/119/27 78/118/27
f 71/119/28 70/206/28 79/120/28
f 70/121/29 69/124/29 80/122/29
f 69/124/30 67/207/30 75/125/30
f 33/126/1 25/208/1 2/127/1
